<svg xmlns="http://www.w3.org/2000/svg" width="900" height="900" viewBox="0 0 900 900">
<rect x="0" y="0" width="900" height="900" fill="#f6e7c1"/><rect x="60" y="60" width="780" height="780" fill="none" stroke="black" stroke-width="10"/><rect x="240" y="240" width="420" height="420" fill="none" stroke="black" stroke-width="10"/><rect x="380" y="380" width="140" height="140" fill="none" stroke="black" stroke-width="10"/><line x1="450.0" y1="60" x2="450.0" y2="380" stroke="black" stroke-width="10" stroke-linecap="round" /><line x1="840" y1="450.0" x2="520" y2="450.0" stroke="black" stroke-width="10" stroke-linecap="round" /><line x1="450.0" y1="840" x2="450.0" y2="520" stroke="black" stroke-width="10" stroke-linecap="round" /><line x1="60" y1="450.0" x2="380" y2="450.0" stroke="black" stroke-width="10" stroke-linecap="round" /><circle cx="60" cy="60" r="14" fill="white" stroke="black" stroke-width="4"/><text x="60" y="60" font-family="Inter, Arial, sans-serif" font-size="28" text-anchor="middle" dominant-baseline="central">0</text><circle cx="450.0" cy="60" r="14" fill="white" stroke="black" stroke-width="4"/><text x="450.0" y="60" font-family="Inter, Arial, sans-serif" font-size="28" text-anchor="middle" dominant-baseline="central">1</text><circle cx="840" cy="60" r="14" fill="white" stroke="black" stroke-width="4"/><text x="840" y="60" font-family="Inter, Arial, sans-serif" font-size="28" text-anchor="middle" dominant-baseline="central">2</text><circle cx="840" cy="450.0" r="14" fill="white" stroke="black" stroke-width="4"/><text x="840" y="450.0" font-family="Inter, Arial, sans-serif" font-size="28" text-anchor="middle" dominant-baseline="central">3</text><circle cx="840" cy="840" r="14" fill="white" stroke="black" stroke-width="4"/><text x="840" y="840" font-family="Inter, Arial, sans-serif" font-size="28" text-anchor="middle" dominant-baseline="central">4</text><circle cx="450.0" cy="840" r="14" fill="white" stroke="black" stroke-width="4"/><text x="450.0" y="840" font-family="Inter, Arial, sans-serif" font-size="28" text-anchor="middle" dominant-baseline="central">5</text><circle cx="60" cy="840" r="14" fill="white" stroke="black" stroke-width="4"/><text x="60" y="840" font-family="Inter, Arial, sans-serif" font-size="28" text-anchor="middle" dominant-baseline="central">6</text><circle cx="60" cy="450.0" r="14" fill="white" stroke="black" stroke-width="4"/><text x="60" y="450.0" font-family="Inter, Arial, sans-serif" font-size="28" text-anchor="middle" dominant-baseline="central">7</text><circle cx="240" cy="240" r="14" fill="white" stroke="black" stroke-width="4"/><text x="240" y="240" font-family="Inter, Arial, sans-serif" font-size="28" text-anchor="middle" dominant-baseline="central">8</text><circle cx="450.0" cy="240" r="14" fill="white" stroke="black" stroke-width="4"/><text x="450.0" y="240" font-family="Inter, Arial, sans-serif" font-size="28" text-anchor="middle" dominant-baseline="central">9</text><circle cx="660" cy="240" r="14" fill="white" stroke="black" stroke-width="4"/><text x="660" y="240" font-family="Inter, Arial, sans-serif" font-size="28" text-anchor="middle" dominant-baseline="central">10</text><circle cx="660" cy="450.0" r="14" fill="white" stroke="black" stroke-width="4"/><text x="660" y="450.0" font-family="Inter, Arial, sans-serif" font-size="28" text-anchor="middle" dominant-baseline="central">11</text><circle cx="660" cy="660" r="14" fill="white" stroke="black" stroke-width="4"/><text x="660" y="660" font-family="Inter, Arial, sans-serif" font-size="28" text-anchor="middle" dominant-baseline="central">12</text><circle cx="450.0" cy="660" r="14" fill="white" stroke="black" stroke-width="4"/><text x="450.0" y="660" font-family="Inter, Arial, sans-serif" font-size="28" text-anchor="middle" dominant-baseline="central">13</text><circle cx="240" cy="660" r="14" fill="white" stroke="black" stroke-width="4"/><text x="240" y="660" font-family="Inter, Arial, sans-serif" font-size="28" text-anchor="middle" dominant-baseline="central">14</text><circle cx="240" cy="450.0" r="14" fill="white" stroke="black" stroke-width="4"/><text x="240" y="450.0" font-family="Inter, Arial, sans-serif" font-size="28" text-anchor="middle" dominant-baseline="central">15</text><circle cx="380" cy="380" r="14" fill="white" stroke="black" stroke-width="4"/><text x="380" y="380" font-family="Inter, Arial, sans-serif" font-size="28" text-anchor="middle" dominant-baseline="central">16</text><circle cx="450.0" cy="380" r="14" fill="white" stroke="black" stroke-width="4"/><text x="450.0" y="380" font-family="Inter, Arial, sans-serif" font-size="28" text-anchor="middle" dominant-baseline="central">17</text><circle cx="520" cy="380" r="14" fill="white" stroke="black" stroke-width="4"/><text x="520" y="380" font-family="Inter, Arial, sans-serif" font-size="28" text-anchor="middle" dominant-baseline="central">18</text><circle cx="520" cy="450.0" r="14" fill="white" stroke="black" stroke-width="4"/><text x="520" y="450.0" font-family="Inter, Arial, sans-serif" font-size="28" text-anchor="middle" dominant-baseline="central">19</text><circle cx="520" cy="520" r="14" fill="white" stroke="black" stroke-width="4"/><text x="520" y="520" font-family="Inter, Arial, sans-serif" font-size="28" text-anchor="middle" dominant-baseline="central">20</text><circle cx="450.0" cy="520" r="14" fill="white" stroke="black" stroke-width="4"/><text x="450.0" y="520" font-family="Inter, Arial, sans-serif" font-size="28" text-anchor="middle" dominant-baseline="central">21</text><circle cx="380" cy="520" r="14" fill="white" stroke="black" stroke-width="4"/><text x="380" y="520" font-family="Inter, Arial, sans-serif" font-size="28" text-anchor="middle" dominant-baseline="central">22</text><circle cx="380" cy="450.0" r="14" fill="white" stroke="black" stroke-width="4"/><text x="380" y="450.0" font-family="Inter, Arial, sans-serif" font-size="28" text-anchor="middle" dominant-baseline="central">23</text>
</svg>